<svg width="16" height="9" viewBox="0 0 16 9" fill="none" xmlns="http://www.w3.org/2000/svg">
<path d="M9.27937 3.55843C9.00954 3.58688 8.73971 3.69379 8.44752 3.88991C8.28407 3.99912 8.13759 4.11449 7.82767 4.37752C7.49924 4.65594 7.3466 4.76977 7.14538 4.88282C6.91332 5.01434 6.74063 5.0851 6.53787 5.13278C6.46077 5.15047 6.4307 5.15355 6.33588 5.15355C6.24028 5.15355 6.21715 5.15124 6.1786 5.13663C6.10999 5.11125 6.07298 5.08664 6.02518 5.03511C5.9504 4.95512 5.90954 4.84283 5.90877 4.71977C5.908 4.63056 5.9265 4.58287 5.97893 4.53442C6.03983 4.47904 6.09842 4.45751 6.32046 4.40982C6.42222 4.38829 6.47388 4.36676 6.51011 4.32984C6.55868 4.28138 6.54172 4.25524 6.42993 4.20832C6.30812 4.15756 6.2025 4.14295 6.08917 4.1614C5.86714 4.19755 5.6929 4.31061 5.55028 4.50904C5.35445 4.78284 5.31359 5.08741 5.43386 5.36736C5.66129 5.89573 6.51782 6.24414 7.72051 6.2972C8.35115 6.32489 9.146 6.21722 9.55383 6.04955C9.70263 5.98879 9.78281 5.94034 9.96398 5.80267C10.0226 5.75806 10.1436 5.69807 10.2022 5.685C10.267 5.66962 10.3502 5.66731 10.3749 5.68038C10.3849 5.68577 10.4227 5.71192 10.4597 5.73884C11.0811 6.19184 12.4094 6.40565 13.5597 6.23798C14.0716 6.16338 14.4987 6.01417 14.7932 5.80575C14.8842 5.74191 15.023 5.60424 15.0769 5.52579C15.2597 5.25892 15.2812 4.97742 15.1402 4.6967C15.0661 4.5498 14.9405 4.39829 14.8094 4.29984C14.7346 4.24293 14.5966 4.17294 14.5273 4.15525C14.3777 4.11757 14.2474 4.14295 14.1518 4.22755C14.1117 4.26293 14.0685 4.32292 14.0685 4.34445C14.0685 4.37522 14.1688 4.40675 14.397 4.44982C14.5249 4.47366 14.582 4.4952 14.6298 4.53827C14.7069 4.60825 14.7215 4.73362 14.6653 4.84514C14.6421 4.88975 14.5542 4.98358 14.4795 5.04357C14.3191 5.17047 14.1348 5.19816 13.9182 5.12586C13.8434 5.10125 13.7062 5.03203 13.6283 4.97973C13.5366 4.9182 13.2321 4.68747 12.8504 4.38983C12.687 4.26216 12.4989 4.1191 12.4326 4.07142C12.0371 3.7907 11.7148 3.63995 11.3818 3.58073C11.2954 3.56535 11.2569 3.56304 11.1042 3.56304C10.9693 3.56304 10.9092 3.56612 10.8537 3.57689C10.6763 3.60919 10.506 3.66456 10.3456 3.7407C10.2284 3.79685 10.2176 3.79685 10.1135 3.7407C9.95704 3.65687 9.75274 3.58842 9.59547 3.56689C9.50758 3.55458 9.3557 3.55074 9.27937 3.55843Z" fill="white"/>
<path fill-rule="evenodd" clip-rule="evenodd" d="M3.73201 0L0 8.68431L4.73118 1.74745H5.38387C5.72993 2.62141 6.58126 3.23938 7.57662 3.23938C8.57197 3.23938 9.4233 2.62141 9.76936 1.74745H10.5239C10.8707 2.62141 11.7238 3.23938 12.7212 3.23938C13.7187 3.23938 14.5718 2.62141 14.9186 1.74745H16V0H3.73201ZM9.30462 1.04369C9.30462 1.99532 8.53317 2.76677 7.58154 2.76677C6.62991 2.76677 5.85846 1.99532 5.85846 1.04369H7.53327H9.30462ZM12.7311 2.76677C13.6827 2.76677 14.4542 1.99532 14.4542 1.04369H12.6828H11.008C11.008 1.99532 11.7794 2.76677 12.7311 2.76677Z" fill="white"/>
<path d="M4.73602 3.15077L3.5791 4.72616L4.06649 8.25108H4.73602V3.15077Z" fill="white"/>
<path d="M15.872 6.71508L5.24805 7.49785V8.22154H15.872V6.71508Z" fill="white"/>
</svg>
